<?xml version="1.0" standalone="no"?>
<!DOCTYPE svg PUBLIC "-//W3C//DTD SVG 20010904//EN"
 "http://www.w3.org/TR/2001/REC-SVG-20010904/DTD/svg10.dtd">
<svg version="1.0" xmlns="http://www.w3.org/2000/svg"
 width="256.000000pt" height="256.000000pt" viewBox="0 0 256.000000 256.000000"
 preserveAspectRatio="xMidYMid meet">

<g transform="translate(0.000000,256.000000) scale(0.100000,-0.100000)"
fill="#000000" stroke="none">
<path d="M1595 2116 c-166 -77 -189 -300 -43 -406 121 -88 290 -43 354 95 44
94 27 183 -51 260 -77 78 -166 95 -260 51z"/>
<path d="M1127 1615 c-216 -55 -385 -223 -442 -440 -27 -107 -14 -289 29 -387
6 -14 -1 -18 -41 -24 -59 -10 -199 -11 -208 -2 -12 12 28 59 102 119 71 59 85
83 61 107 -19 19 -52 14 -181 -29 -277 -94 -424 -198 -443 -316 -19 -123 70
-164 312 -144 138 12 304 38 453 71 l84 19 41 -35 c91 -78 250 -133 382 -134
112 0 255 48 358 121 92 65 190 209 219 322 9 33 17 60 19 61 2 2 44 20 93 41
241 101 416 204 511 300 95 94 111 187 41 237 -28 20 -46 23 -149 27 -121 3
-204 -5 -418 -40 -143 -24 -160 -31 -160 -63 0 -35 16 -43 120 -55 100 -11
155 -24 180 -41 13 -9 9 -16 -21 -43 -31 -27 -186 -117 -202 -117 -3 0 -11 17
-17 38 -58 178 -202 326 -382 389 -91 32 -251 41 -341 18z"/>
<path d="M346 1366 c-31 -29 -36 -40 -36 -79 0 -112 127 -160 203 -77 21 24
27 40 27 76 0 40 -5 51 -36 80 -29 28 -43 34 -79 34 -36 0 -50 -6 -79 -34z"/>
</g>
</svg>
